<?xml version="1.0" encoding="UTF-8"?>
<svg xmlns="http://www.w3.org/2000/svg" xmlns:xlink="http://www.w3.org/1999/xlink" width="45.84pt" height="53.712002pt" viewBox="0 0 45.84 53.712002" version="1.1">
<g id="surface1">
<path style=" stroke:none;fill-rule:nonzero;fill:rgb(91%,91%,91%);fill-opacity:1;" d="M 11.855469 6.480469 L 5.457031 24.671875 L 20.710938 25.878906 L 22.480469 13.238281 L 18.960938 6.433594 Z M 11.855469 6.480469 "/>
<path style=" stroke:none;fill-rule:nonzero;fill:rgb(68%,68%,68%);fill-opacity:1;" d="M 5.457031 24.671875 L 11.816406 43.550781 L 23.503906 47.289062 L 24.734375 39.632812 L 20.710938 25.878906 Z M 5.457031 24.671875 "/>
<path style=" stroke:none;fill-rule:nonzero;fill:rgb(82%,82%,82%);fill-opacity:1;" d="M 18.960938 6.433594 L 32.632812 10.65625 L 40.351562 29.785156 L 22.078125 16.054688 L 22.480469 13.238281 Z M 18.960938 6.433594 "/>
<path style=" stroke:none;fill-rule:nonzero;fill:rgb(45%,45%,45%);fill-opacity:1;" d="M 23.449219 35.175781 L 35.800781 39.9375 L 34.71875 41.023438 L 23.503906 47.289062 L 24.734375 39.632812 Z M 23.449219 35.175781 "/>
<path style=" stroke:none;fill-rule:nonzero;fill:rgb(78%,78%,78%);fill-opacity:1;" d="M 40.382812 29.847656 L 35.800781 39.9375 L 23.449219 35.175781 L 20.710938 25.878906 L 22.078125 16.054688 Z M 40.382812 29.847656 "/>
</g>
</svg>
